<svg version="1.1" id="Layer_1" xmlns="http://www.w3.org/2000/svg" xmlns:xlink="http://www.w3.org/1999/xlink" x="0px" y="0px"
	 viewBox="0 0 975 432" style="enable-background:new 0 0 975 432;" xml:space="preserve">
<g>
	<defs>
		<rect id="SVGID_1_" width="975" height="432"/>
	</defs>
	<path style="clip-path:url(#SVGID_00000055694546600282396630000008006529358167882683_);fill:currentColor;" d="M923.9,180.2
		c10.9,0,17.2,4.9,20.9,10.9c3.7,6.9,4.6,13.8,4.6,20.9c0,32.4-0.6,44.1-1.4,50.7c-1.1,7.7-2,9.7-9.2,10.9c-2.9,0.6-4.6,1.1-4.6,2.3
		c0,0.9,1.4,1.7,4.9,1.7c5.4,0,8.3-1.1,16.3-1.1c6.3,0,12.6,1.4,19.5,1.4c2.9,0,4.6-0.9,4.6-2c0-0.9-0.9-1.7-4.6-2.6
		c-8.9-1.4-10-2.6-10.3-8.6c-0.3-9.5,0-27.5-0.3-49.8c-0.3-18.9-3.7-27.5-6.3-30.9c-6.9-10-17.2-13.2-25.2-13.2
		c-8.3,0-15.8,2.6-20.9,5.2c-6.3,3.2-14.9,9.5-18,12.6c-0.3,0.3-1.1,0.3-1.1-0.9c0-6,0.9-95.4,1.1-104.6c0.3-3.7-0.6-6-1.1-6
		s-1.4,0.3-2.6,0.9c-4.3,2.3-8.6,3.4-17.5,6c-2.9,0.9-4.6,1.7-4.6,2.3c0,0.9,0.6,1.4,2,2.3c5.7,3.4,8.3,4.3,8.6,13.5
		c0.3,11.7-0.3,27.8-0.3,71c0,48.4-0.3,74.5-1.1,86.5c-0.6,11.5-2.9,12-11.2,14c-3.4,0.9-4.6,1.4-4.6,2.3c0,1.1,1.1,1.7,4.3,1.7
		c4.9,0,9.5-1.1,16.9-1.1c9.5,0,15.5,1.1,23.2,1.1c2.3,0,4-0.9,4-1.7c0-1.4-2-2-6.9-2.9c-6-1.1-8-4.3-9.2-9.5
		c-0.3-2.9-1.4-10-1.4-59.3c0-7.2,1.4-10.6,2.9-12C900.4,186.8,910.1,180.2,923.9,180.2 M830.2,175.1c4.9,0,9.7,1.7,12.9,4
		c4,3.2,5.2,6.6,6.9,10.9c0.9,2,1.1,3.4,2.3,3.4c0.9,0,1.4-1.4,1.4-4.6c-0.3-3.4-1.4-9.5-1.7-12.6c0-0.6-0.9-2-1.4-2.3
		c-3.2-1.1-11.2-3.2-18.3-3.2c-11.2,0-18.9,4.3-24.1,8.6c-4.9,4.3-9.2,11.2-9.2,21.2c0,13.8,13.5,23.8,23.8,30.4
		c10.3,6.6,18.3,12.6,18.3,24.4c0,12.3-11.2,20.6-19.5,20.6c-3.4,0-8-0.9-12.3-3.4c-4.9-2.9-9.5-7.4-12-14.6c-2-5.4-2.9-5.4-3.4-5.4
		s-1.4,0.6-0.9,4.3c0.3,3.4,0.9,9.7,0.9,13.8c0,1.4,1.4,3.4,3.7,4.3c8.6,3.4,14,5.2,21.8,5.2c6.3,0,14.6-1.7,20.9-5.7
		c6-3.4,15.5-10.9,15.5-23.8c0-14.6-7.4-21.8-26.4-33.8c-5.4-3.2-16.9-10.3-16.9-22.9C812.5,181.7,820.2,175.1,830.2,175.1
		 M707.4,174.2c-4.9,0-15.8-0.9-18.3-0.9c-2,0-4.3,0.6-4.3,2c0,0.6,1.4,1.7,5.2,2.6c5.2,1.1,8.6,4,10.6,8
		c12.6,27.8,30.1,73.3,34.7,84.2c0.9,2.3,1.7,5.7,0.3,9.7c-10,25.8-18.6,51.3-21.5,57.3c-1.7,4.3-4,5.4-7.7,5.4
		c-2,0-3.2-0.6-5.2-0.6c-3.2,0-7.2,3.7-7.2,7.4c0,5.7,5.2,8.6,9.2,8.6c2.6,0,6.3-0.9,9.2-4.9c2.3-2.9,3.4-5.4,5.4-10.3
		c3.2-8,15.2-41.5,21.8-58.2l11.7-31.2c3.7-9.5,21.8-55.6,24.9-61.9c4.6-10.3,7.4-12.9,12.9-14.6c2.9-0.9,4-1.7,4-2.6
		c0-0.9-1.4-1.1-3.4-1.1c-4.9,0-8,0.9-12.9,0.9c-4.3,0-9.7-0.9-13.5-0.9c-1.7,0-3.4,0.9-3.4,1.7c0,0.9,1.1,1.7,5.2,2.6
		c4.6,1.1,6,3.4,6,5.4c0,1.4,0,4.9-1.7,9.2c-2,5.7-20.9,53.6-23.5,60.7c-0.3,0.6-1.1,0.9-1.4,0.3c-5.7-12-23.2-54.1-26.6-63.6
		c-3.2-8.3-2.9-10,4-12c1.7-0.3,3.7-1.1,3.7-2.3s-2-2-4.9-1.7C718.2,173.7,711.4,174.2,707.4,174.2 M602.1,95.7
		c-12.6,0-29.5-1.1-32.1-1.1c-2,0-4.3,0.6-4.3,1.7c0,1.4,2,2.3,4.6,2.9c10.9,2.6,11.2,5.4,11.7,15.8c0.9,17.8,0.9,33.5,0.9,64.2
		c0,31.5,0,69-0.9,78.5c-0.6,11.2-1.7,12.9-12.9,15.5c-4,0.9-5.2,1.7-5.2,2.9c0,1.1,2.3,1.7,4.3,1.7c2,0,9.7-1.1,19.5-1.1
		c11.5,0,23.2,1.7,26.1,1.7c3.2,0,6,0,6-1.7c0-1.1-1.4-2-4-2.6c-13.5-3.2-14.6-4.9-15.2-16.3c-0.6-12.9-0.9-58.4-0.6-63
		c0-1.1,2.3-3.7,2.9-3.7c46.4,0,48.4,0.6,52.7,1.4c3.4,0.9,6.3,4.3,8,9.2c1.7,4.6,2.9,6.3,4,6.3c1.1,0,1.7-0.9,1.7-4.6
		c0-4-1.1-7.4-1.1-12.6c0-5.7,1.1-14,1.4-17.5c0.3-3.2-0.3-4-1.4-4c-0.6,0-1.4,0.9-2.9,4c-4.6,9.7-9.2,10-12.6,10.3
		c-4.6,0.3-21.8,0.9-49.8,0.9c-0.6,0-2.6-0.9-2.6-3.7c-0.6-40.4,0-66.2,0-74.2c0-1.4,2.3-5.4,4.6-5.4c27.5,0,40.7,0,50.1,0.9
		c10,0.9,16,4,20.9,14.9c1.4,3.2,2.3,5.7,3.7,5.7c1.1,0,1.7-2.3,1.1-5.2c-0.6-4-1.4-14.9-2-19.5c-0.3-2-2.3-2.9-9.5-2.9
		C658.5,94.9,629.6,95.7,602.1,95.7 M450.8,180.2c10.9,0,17.2,4.9,20.9,10.9c3.7,6.9,4.6,13.8,4.6,20.9c0,32.4-0.6,44.1-1.4,50.7
		c-1.1,7.7-2,9.7-9.2,10.9c-2.9,0.6-4.6,1.1-4.6,2.3c0,0.9,1.4,1.7,4.9,1.7c5.4,0,8.3-1.1,16.3-1.1c6.3,0,12.6,1.4,19.5,1.4
		c2.9,0,4.6-0.9,4.6-2c0-0.9-0.9-1.7-4.6-2.6c-8.9-1.4-10-2.6-10.3-8.6c-0.3-9.5,0-27.5-0.3-49.8c-0.3-18.9-3.7-27.5-6.3-30.9
		c-6.9-10-17.2-13.2-25.2-13.2c-8.3,0-15.8,2.6-20.9,5.2c-6.3,3.2-14.9,9.5-18,12.6c-0.3,0.3-1.1,0.3-1.1-0.9
		c0-6,0.9-95.4,1.1-104.6c0.3-3.7-0.6-6-1.1-6c-0.6,0-1.4,0.3-2.6,0.9c-4.3,2.3-8.6,3.4-17.5,6c-2.9,0.9-4.6,1.7-4.6,2.3
		c0,0.9,0.6,1.4,2,2.3c5.7,3.4,8.3,4.3,8.6,13.5c0.3,11.7-0.3,27.8-0.3,71c0,48.4-0.3,74.5-1.1,86.5c-0.6,11.5-2.9,12-11.2,14
		c-3.4,0.9-4.6,1.4-4.6,2.3c0,1.1,1.1,1.7,4.3,1.7c4.9,0,9.5-1.1,16.9-1.1c9.5,0,15.5,1.1,23.2,1.1c2.3,0,4-0.9,4-1.7
		c0-1.4-2-2-6.9-2.9c-6-1.1-8-4.3-9.2-9.5c-0.3-2.9-1.4-10-1.4-59.3c0-7.2,1.4-10.6,2.9-12C427.3,186.8,437.1,180.2,450.8,180.2
		 M326.9,269.3c-9.7,0-18-6.6-18-15.5c0-8.6,4-12.6,6.6-14c6.3-3.2,25.8-10.3,29.8-10.9c0.6-0.3,1.1,1.1,1.1,1.4
		c0,10.3-0.6,21.8-1.4,26.6c-0.6,3.4-2.3,6-3.7,7.4C337.8,267.6,332.4,269.3,326.9,269.3 M337.2,170.8c-4.9,0-9.5,1.4-16.3,4.9
		c-3.4,1.7-14.6,8.3-21.8,16.9c-3.2,4-4.3,5.7-4.3,7.2c0,1.1,1.1,2.6,2.3,2.6c1.1,0,9.2-3.4,11.7-5.2c0.6-0.6,1.1-1.4,1.1-2.3
		c0-1.7,0-3.2,0.3-4.3c0.9-3.7,2.9-5.7,5.2-7.7c4.9-3.2,7.4-4,12-4c3.4,0,8.3,1.7,12.3,4.6c5.2,3.7,7.2,12.9,7.2,24.6
		c0,4.9-0.3,9.7-0.6,13.2c0,0.6-1.4,3.4-4,4.3c-5.2,1.7-32.1,10.3-38.7,14c-2.3,1.1-10.3,6.6-10.3,15.8c0,14.3,10.9,24.1,22.6,24.1
		c11.5,0,19.8-5.4,28.4-12.9c0.3-0.3,1.1-0.3,1.4,0.3c2.6,7.2,9.2,12.9,16,12.9c8.6,0,16.9-4.6,20.1-11.5c1.1-2.9,0-3.2-1.7-2.3
		c-3.2,1.7-6,2.6-8.6,2.6c-8.6,0-11.2-5.4-11.2-11.5c0-7.4,1.1-36.1,1.1-45.3c0-8.9-1.1-20.6-2.6-25.2
		C355.6,176.2,346.1,170.8,337.2,170.8 M265.4,184.3c3.2,0,6.3,1.1,9.5,2.9c3.4,1.7,4.6,2,5.2,2c0.9,0,1.7,0,4.3-2.3
		c2.9-2.3,5.2-6,5.2-7.7c0-1.1-0.3-2.6-1.1-3.4c-2.9-2.6-6.9-4-10.3-4c-11.5,0-23.2,10.6-31.5,20.3c-0.9,0.9-1.4,0.6-1.4,0
		c0-3.7,0.3-16,0.3-18.3c0-3.4-0.6-4.3-1.1-4.3s-2,0.3-4,1.4c-4,2.3-11.2,4.9-14.3,5.7c-3.2,0.9-4.9,2-4.9,2.6s0.3,1.4,2.3,2.9
		c4.9,4,7.4,4.9,7.4,7.2v32.9c0,18.9-0.3,35.2-0.9,40.1c-1.1,7.7-4.9,10.3-10.6,11.7c-2,0.6-4,2-4,2.9c0,1.1,1.1,1.4,4.3,1.4
		c2.9,0,7.4-1.7,14.9-1.7c11.5,0,22.6,1.1,26.9,1.1c4.6,0,7.2-0.6,7.2-2c0-1.4-1.4-2-5.4-2.6c-11.2-0.9-15.2-2.9-16.3-12
		c-0.6-5.7-1.1-21.8-1.1-43.3c0-6,0-12.9,0.3-15.5c0.3-3.7,2-7.4,5.7-11.5C255.6,187.1,260.8,184.3,265.4,184.3 M152.6,269.3
		c-9.7,0-18-6.6-18-15.5c0-8.6,4-12.6,6.6-14c6.3-3.2,25.8-10.3,29.8-10.9c0.6-0.3,1.1,1.1,1.1,1.4c0,10.3-0.6,21.8-1.4,26.6
		c-0.6,3.4-2.3,6-3.7,7.4C163.5,267.6,158,269.3,152.6,269.3 M162.9,170.8c-4.9,0-9.5,1.4-16.3,4.9c-3.4,1.7-14.6,8.3-21.8,16.9
		c-3.2,4-4.3,5.7-4.3,7.2c0,1.1,1.1,2.6,2.3,2.6c1.1,0,9.2-3.4,11.7-5.2c0.6-0.6,1.1-1.4,1.1-2.3c0-1.7,0-3.2,0.3-4.3
		c0.9-3.7,2.9-5.7,5.2-7.7c4.9-3.2,7.4-4,12-4c3.4,0,8.3,1.7,12.3,4.6c5.2,3.7,7.2,12.9,7.2,24.6c0,4.9-0.3,9.7-0.6,13.2
		c0,0.6-1.4,3.4-4,4.3c-5.2,1.7-32.1,10.3-38.7,14c-2.3,1.1-10.3,6.6-10.3,15.8c0,14.3,10.9,24.1,22.6,24.1
		c11.5,0,19.8-5.4,28.4-12.9c0.3-0.3,1.1-0.3,1.4,0.3c2.6,7.2,9.2,12.9,16,12.9c8.6,0,16.9-4.6,20.1-11.5c1.1-2.9,0-3.2-1.7-2.3
		c-3.2,1.7-6,2.6-8.6,2.6c-8.6,0-11.2-5.4-11.2-11.5c0-7.4,1.1-36.1,1.1-45.3c0-8.9-1.1-20.6-2.6-25.2
		C181.2,176.2,171.8,170.8,162.9,170.8 M65.7,90.6c-15.8,0-28.6,5.4-36.1,11.5c-11.5,8.9-18,20.3-18,37c0,24.1,18.6,39.8,38.1,53
		c21.2,14.3,35.8,24.6,35.8,45.8c0,18.9-15.2,39-39,39c-18.3,0-36.7-8.9-41.8-30.7c-1.1-4-2-5.4-3.2-5.4c-1.4,0-1.7,2.6-1.4,4.9
		c0.3,7.2,2,14.6,2.6,19.5c0.9,4.9,1.7,6.6,5.4,8.6c8.9,4.9,26.4,8,37.8,8c28.9,0,58.4-19.2,58.4-50.4c0-23.5-15.5-36.4-25.8-43.8
		c-8.9-6.6-18-13.5-29.8-21.2c-9.7-6.6-21.5-17.2-21.5-34.4c0-24.4,20.6-37,33.8-37c7.4,0,16.9,2,23.5,6.9
		c5.4,3.4,8.6,9.5,10.3,16.9c0.6,3.2,1.4,4.3,2.6,4.3c0.9,0,2-1.7,1.4-5.7c-0.3-2.9-1.1-10.9-1.1-18.6c0-0.9-0.6-2.6-2-3.2
		C91.5,94.3,77.7,90.6,65.7,90.6"/>	
</g>
</svg>