<svg version="1.1" id="Layer_1" xmlns="http://www.w3.org/2000/svg" xmlns:xlink="http://www.w3.org/1999/xlink" x="0px" y="0px"
	 viewBox="0 0 1842 432" style="enable-background:new 0 0 1842 432;" xml:space="preserve">
<g>
	<defs>
		<rect id="SVGID_1_" width="1842" height="432"/>
	</defs>
	<path style="clip-path:url(#SVGID_00000055694546600282396630000008006529358167882683_);fill:currentColor;" d="M923.9,180.2
		c10.9,0,17.2,4.9,20.9,10.9c3.7,6.9,4.6,13.8,4.6,20.9c0,32.4-0.6,44.1-1.4,50.7c-1.1,7.7-2,9.7-9.2,10.9c-2.9,0.6-4.6,1.1-4.6,2.3
		c0,0.9,1.4,1.7,4.9,1.7c5.4,0,8.3-1.1,16.3-1.1c6.3,0,12.6,1.4,19.5,1.4c2.9,0,4.6-0.9,4.6-2c0-0.9-0.9-1.7-4.6-2.6
		c-8.9-1.4-10-2.6-10.3-8.6c-0.3-9.5,0-27.5-0.3-49.8c-0.3-18.9-3.7-27.5-6.3-30.9c-6.9-10-17.2-13.2-25.2-13.2
		c-8.3,0-15.8,2.6-20.9,5.2c-6.3,3.2-14.9,9.5-18,12.6c-0.3,0.3-1.1,0.3-1.1-0.9c0-6,0.9-95.4,1.1-104.6c0.3-3.7-0.6-6-1.1-6
		s-1.4,0.3-2.6,0.9c-4.3,2.3-8.6,3.4-17.5,6c-2.9,0.9-4.6,1.7-4.6,2.3c0,0.9,0.6,1.4,2,2.3c5.7,3.4,8.3,4.3,8.6,13.5
		c0.3,11.7-0.3,27.8-0.3,71c0,48.4-0.3,74.5-1.1,86.5c-0.6,11.5-2.9,12-11.2,14c-3.4,0.9-4.6,1.4-4.6,2.3c0,1.1,1.1,1.7,4.3,1.7
		c4.9,0,9.5-1.1,16.9-1.1c9.5,0,15.5,1.1,23.2,1.1c2.3,0,4-0.9,4-1.7c0-1.4-2-2-6.9-2.9c-6-1.1-8-4.3-9.2-9.5
		c-0.3-2.9-1.4-10-1.4-59.3c0-7.2,1.4-10.6,2.9-12C900.4,186.8,910.1,180.2,923.9,180.2 M830.2,175.1c4.9,0,9.7,1.7,12.9,4
		c4,3.2,5.2,6.6,6.9,10.9c0.9,2,1.1,3.4,2.3,3.4c0.9,0,1.4-1.4,1.4-4.6c-0.3-3.4-1.4-9.5-1.7-12.6c0-0.6-0.9-2-1.4-2.3
		c-3.2-1.1-11.2-3.2-18.3-3.2c-11.2,0-18.9,4.3-24.1,8.6c-4.9,4.3-9.2,11.2-9.2,21.2c0,13.8,13.5,23.8,23.8,30.4
		c10.3,6.6,18.3,12.6,18.3,24.4c0,12.3-11.2,20.6-19.5,20.6c-3.4,0-8-0.9-12.3-3.4c-4.9-2.9-9.5-7.4-12-14.6c-2-5.4-2.9-5.4-3.4-5.4
		s-1.4,0.6-0.9,4.3c0.3,3.4,0.9,9.7,0.9,13.8c0,1.4,1.4,3.4,3.7,4.3c8.6,3.4,14,5.2,21.8,5.2c6.3,0,14.6-1.7,20.9-5.7
		c6-3.4,15.5-10.9,15.5-23.8c0-14.6-7.4-21.8-26.4-33.8c-5.4-3.2-16.9-10.3-16.9-22.9C812.5,181.7,820.2,175.1,830.2,175.1
		 M707.4,174.2c-4.9,0-15.8-0.9-18.3-0.9c-2,0-4.3,0.6-4.3,2c0,0.6,1.4,1.7,5.2,2.6c5.2,1.1,8.6,4,10.6,8
		c12.6,27.8,30.1,73.3,34.7,84.2c0.9,2.3,1.7,5.7,0.3,9.7c-10,25.8-18.6,51.3-21.5,57.3c-1.7,4.3-4,5.4-7.7,5.4
		c-2,0-3.2-0.6-5.2-0.6c-3.2,0-7.2,3.7-7.2,7.4c0,5.7,5.2,8.6,9.2,8.6c2.6,0,6.3-0.9,9.2-4.9c2.3-2.9,3.4-5.4,5.4-10.3
		c3.2-8,15.2-41.5,21.8-58.2l11.7-31.2c3.7-9.5,21.8-55.6,24.9-61.9c4.6-10.3,7.4-12.9,12.9-14.6c2.9-0.9,4-1.7,4-2.6
		c0-0.9-1.4-1.1-3.4-1.1c-4.9,0-8,0.9-12.9,0.9c-4.3,0-9.7-0.9-13.5-0.9c-1.7,0-3.4,0.9-3.4,1.7c0,0.9,1.1,1.7,5.2,2.6
		c4.6,1.1,6,3.4,6,5.4c0,1.4,0,4.9-1.7,9.2c-2,5.7-20.9,53.6-23.5,60.7c-0.3,0.6-1.1,0.9-1.4,0.3c-5.7-12-23.2-54.1-26.6-63.6
		c-3.2-8.3-2.9-10,4-12c1.7-0.3,3.7-1.1,3.7-2.3s-2-2-4.9-1.7C718.2,173.7,711.4,174.2,707.4,174.2 M602.1,95.7
		c-12.6,0-29.5-1.1-32.1-1.1c-2,0-4.3,0.6-4.3,1.7c0,1.4,2,2.3,4.6,2.9c10.9,2.6,11.2,5.4,11.7,15.8c0.9,17.8,0.9,33.5,0.9,64.2
		c0,31.5,0,69-0.9,78.5c-0.6,11.2-1.7,12.9-12.9,15.5c-4,0.9-5.2,1.7-5.2,2.9c0,1.1,2.3,1.7,4.3,1.7c2,0,9.7-1.1,19.5-1.1
		c11.5,0,23.2,1.7,26.1,1.7c3.2,0,6,0,6-1.7c0-1.1-1.4-2-4-2.6c-13.5-3.2-14.6-4.9-15.2-16.3c-0.6-12.9-0.9-58.4-0.6-63
		c0-1.1,2.3-3.7,2.9-3.7c46.4,0,48.4,0.6,52.7,1.4c3.4,0.9,6.3,4.3,8,9.2c1.7,4.6,2.9,6.3,4,6.3c1.1,0,1.7-0.9,1.7-4.6
		c0-4-1.1-7.4-1.1-12.6c0-5.7,1.1-14,1.4-17.5c0.3-3.2-0.3-4-1.4-4c-0.6,0-1.4,0.9-2.9,4c-4.6,9.7-9.2,10-12.6,10.3
		c-4.6,0.3-21.8,0.9-49.8,0.9c-0.6,0-2.6-0.9-2.6-3.7c-0.6-40.4,0-66.2,0-74.2c0-1.4,2.3-5.4,4.6-5.4c27.5,0,40.7,0,50.1,0.9
		c10,0.9,16,4,20.9,14.9c1.4,3.2,2.3,5.7,3.7,5.7c1.1,0,1.7-2.3,1.1-5.2c-0.6-4-1.4-14.9-2-19.5c-0.3-2-2.3-2.9-9.5-2.9
		C658.5,94.9,629.6,95.7,602.1,95.7 M450.8,180.2c10.9,0,17.2,4.9,20.9,10.9c3.7,6.9,4.6,13.8,4.6,20.9c0,32.4-0.6,44.1-1.4,50.7
		c-1.1,7.7-2,9.7-9.2,10.9c-2.9,0.6-4.6,1.1-4.6,2.3c0,0.9,1.4,1.7,4.9,1.7c5.4,0,8.3-1.1,16.3-1.1c6.3,0,12.6,1.4,19.5,1.4
		c2.9,0,4.6-0.9,4.6-2c0-0.9-0.9-1.7-4.6-2.6c-8.9-1.4-10-2.6-10.3-8.6c-0.3-9.5,0-27.5-0.3-49.8c-0.3-18.9-3.7-27.5-6.3-30.9
		c-6.9-10-17.2-13.2-25.2-13.2c-8.3,0-15.8,2.6-20.9,5.2c-6.3,3.2-14.9,9.5-18,12.6c-0.3,0.3-1.1,0.3-1.1-0.9
		c0-6,0.9-95.4,1.1-104.6c0.3-3.7-0.6-6-1.1-6c-0.6,0-1.4,0.3-2.6,0.9c-4.3,2.3-8.6,3.4-17.5,6c-2.9,0.9-4.6,1.7-4.6,2.3
		c0,0.9,0.6,1.4,2,2.3c5.7,3.4,8.3,4.3,8.6,13.5c0.3,11.7-0.3,27.8-0.3,71c0,48.4-0.3,74.5-1.1,86.5c-0.6,11.5-2.9,12-11.2,14
		c-3.4,0.9-4.6,1.4-4.6,2.3c0,1.1,1.1,1.7,4.3,1.7c4.9,0,9.5-1.1,16.9-1.1c9.5,0,15.5,1.1,23.2,1.1c2.3,0,4-0.9,4-1.7
		c0-1.4-2-2-6.9-2.9c-6-1.1-8-4.3-9.2-9.5c-0.3-2.9-1.4-10-1.4-59.3c0-7.2,1.4-10.6,2.9-12C427.3,186.8,437.1,180.2,450.8,180.2
		 M326.9,269.3c-9.7,0-18-6.6-18-15.5c0-8.6,4-12.6,6.6-14c6.3-3.2,25.8-10.3,29.8-10.9c0.6-0.3,1.1,1.1,1.1,1.4
		c0,10.3-0.6,21.8-1.4,26.6c-0.6,3.4-2.3,6-3.7,7.4C337.8,267.6,332.4,269.3,326.9,269.3 M337.2,170.8c-4.9,0-9.5,1.4-16.3,4.9
		c-3.4,1.7-14.6,8.3-21.8,16.9c-3.2,4-4.3,5.7-4.3,7.2c0,1.1,1.1,2.6,2.3,2.6c1.1,0,9.2-3.4,11.7-5.2c0.6-0.6,1.1-1.4,1.1-2.3
		c0-1.7,0-3.2,0.3-4.3c0.9-3.7,2.9-5.7,5.2-7.7c4.9-3.2,7.4-4,12-4c3.4,0,8.3,1.7,12.3,4.6c5.2,3.7,7.2,12.9,7.2,24.6
		c0,4.9-0.3,9.7-0.6,13.2c0,0.6-1.4,3.4-4,4.3c-5.2,1.7-32.1,10.3-38.7,14c-2.3,1.1-10.3,6.6-10.3,15.8c0,14.3,10.9,24.1,22.6,24.1
		c11.5,0,19.8-5.4,28.4-12.9c0.3-0.3,1.1-0.3,1.4,0.3c2.6,7.2,9.2,12.9,16,12.9c8.6,0,16.9-4.6,20.1-11.5c1.1-2.9,0-3.2-1.7-2.3
		c-3.2,1.7-6,2.6-8.6,2.6c-8.6,0-11.2-5.4-11.2-11.5c0-7.4,1.1-36.1,1.1-45.3c0-8.9-1.1-20.6-2.6-25.2
		C355.6,176.2,346.1,170.8,337.2,170.8 M265.4,184.3c3.2,0,6.3,1.1,9.5,2.9c3.4,1.7,4.6,2,5.2,2c0.9,0,1.7,0,4.3-2.3
		c2.9-2.3,5.2-6,5.2-7.7c0-1.1-0.3-2.6-1.1-3.4c-2.9-2.6-6.9-4-10.3-4c-11.5,0-23.2,10.6-31.5,20.3c-0.9,0.9-1.4,0.6-1.4,0
		c0-3.7,0.3-16,0.3-18.3c0-3.4-0.6-4.3-1.1-4.3s-2,0.3-4,1.4c-4,2.3-11.2,4.9-14.3,5.7c-3.2,0.9-4.9,2-4.9,2.6s0.3,1.4,2.3,2.9
		c4.9,4,7.4,4.9,7.4,7.2v32.9c0,18.9-0.3,35.2-0.9,40.1c-1.1,7.7-4.9,10.3-10.6,11.7c-2,0.6-4,2-4,2.9c0,1.1,1.1,1.4,4.3,1.4
		c2.9,0,7.4-1.7,14.9-1.7c11.5,0,22.6,1.1,26.9,1.1c4.6,0,7.2-0.6,7.2-2c0-1.4-1.4-2-5.4-2.6c-11.2-0.9-15.2-2.9-16.3-12
		c-0.6-5.7-1.1-21.8-1.1-43.3c0-6,0-12.9,0.3-15.5c0.3-3.7,2-7.4,5.7-11.5C255.6,187.1,260.8,184.3,265.4,184.3 M152.6,269.3
		c-9.7,0-18-6.6-18-15.5c0-8.6,4-12.6,6.6-14c6.3-3.2,25.8-10.3,29.8-10.9c0.6-0.3,1.1,1.1,1.1,1.4c0,10.3-0.6,21.8-1.4,26.6
		c-0.6,3.4-2.3,6-3.7,7.4C163.5,267.6,158,269.3,152.6,269.3 M162.9,170.8c-4.9,0-9.5,1.4-16.3,4.9c-3.4,1.7-14.6,8.3-21.8,16.9
		c-3.2,4-4.3,5.7-4.3,7.2c0,1.1,1.1,2.6,2.3,2.6c1.1,0,9.2-3.4,11.7-5.2c0.6-0.6,1.1-1.4,1.1-2.3c0-1.7,0-3.2,0.3-4.3
		c0.9-3.7,2.9-5.7,5.2-7.7c4.9-3.2,7.4-4,12-4c3.4,0,8.3,1.7,12.3,4.6c5.2,3.7,7.2,12.9,7.2,24.6c0,4.9-0.3,9.7-0.6,13.2
		c0,0.6-1.4,3.4-4,4.3c-5.2,1.7-32.1,10.3-38.7,14c-2.3,1.1-10.3,6.6-10.3,15.8c0,14.3,10.9,24.1,22.6,24.1
		c11.5,0,19.8-5.4,28.4-12.9c0.3-0.3,1.1-0.3,1.4,0.3c2.6,7.2,9.2,12.9,16,12.9c8.6,0,16.9-4.6,20.1-11.5c1.1-2.9,0-3.2-1.7-2.3
		c-3.2,1.7-6,2.6-8.6,2.6c-8.6,0-11.2-5.4-11.2-11.5c0-7.4,1.1-36.1,1.1-45.3c0-8.9-1.1-20.6-2.6-25.2
		C181.2,176.2,171.8,170.8,162.9,170.8 M65.7,90.6c-15.8,0-28.6,5.4-36.1,11.5c-11.5,8.9-18,20.3-18,37c0,24.1,18.6,39.8,38.1,53
		c21.2,14.3,35.8,24.6,35.8,45.8c0,18.9-15.2,39-39,39c-18.3,0-36.7-8.9-41.8-30.7c-1.1-4-2-5.4-3.2-5.4c-1.4,0-1.7,2.6-1.4,4.9
		c0.3,7.2,2,14.6,2.6,19.5c0.9,4.9,1.7,6.6,5.4,8.6c8.9,4.9,26.4,8,37.8,8c28.9,0,58.4-19.2,58.4-50.4c0-23.5-15.5-36.4-25.8-43.8
		c-8.9-6.6-18-13.5-29.8-21.2c-9.7-6.6-21.5-17.2-21.5-34.4c0-24.4,20.6-37,33.8-37c7.4,0,16.9,2,23.5,6.9
		c5.4,3.4,8.6,9.5,10.3,16.9c0.6,3.2,1.4,4.3,2.6,4.3c0.9,0,2-1.7,1.4-5.7c-0.3-2.9-1.1-10.9-1.1-18.6c0-0.9-0.6-2.6-2-3.2
		C91.5,94.3,77.7,90.6,65.7,90.6"/>
	<path style="clip-path:url(#SVGID_00000055694546600282396630000008006529358167882683_);fill:currentColor;" d="M1827.2,249.1
		c0,3.6-2.2,6.1-3.8,7.1c-0.8,0.5-3.8,1.5-7.2,1.5c-0.3,0-0.8-0.4-0.9-0.9c-0.2-1,0-12,0.2-14c0-0.2,0.4-1.1,0.7-1.2
		c0.6-0.3,2.5-0.4,2.8-0.4c1.8,0,4.3,0.9,5.7,2.2C1826.3,245,1827.2,247.7,1827.2,249.1 M1832.3,248.9c0-2.8-1.4-5.6-3.3-7.2
		c-2.3-1.9-5.4-2.4-9.3-2.4c-3.1,0-7.2,0.3-9.3,0.3h-3.2c-1.3,0-1.5,0.3-1.5,0.7c0,0.5,0.5,0.7,1.4,1c2.6,0.6,3.1,0.7,3.3,2.9
		c0.2,2.2,0.3,7.4,0.3,16.3c0,3.4-0.2,9.5-0.3,11.3c-0.2,2.2-1.2,2.5-3.7,3.3c-0.7,0.3-1.3,0.4-1.3,0.9c0,0.6,0.7,0.8,1.5,0.8
		c0.6,0,3.6-0.2,4.6-0.2c3.9,0,5,0.3,7.4,0.3c0.3,0,1.4-0.2,1.4-0.7c0-0.3-0.4-0.7-1.4-1c-2.7-0.6-3.3-1.4-3.4-3.8
		c-0.2-3.3-0.3-10.6-0.2-11.6c0-0.2,0.3-0.7,0.7-0.7c1.7,0,3.8,0.5,4.1,0.7c0.3,0.2,1.5,1.7,2.3,2.9c2.3,3.6,5.2,8,7.2,10.8
		c1.7,2.1,4.9,3.7,7.6,3.7c1.2,0,2.5-0.1,3.2-0.4c0.3-0.2,0.8-0.4,0.8-0.7c0-0.2-0.5-0.7-0.9-0.8c-2.5-0.5-4.1-1.5-5.6-3.4
		c-3.5-3.9-8.3-11.6-8.9-13c-0.1-0.2,0.1-0.7,0.2-0.9c0.4-0.3,1.5-0.8,1.8-1C1830.5,255.2,1832.3,252,1832.3,248.9 M1754,240.5
		c2.6,0,6.2,1.2,8.6,3.1c4.2,3.4,6.9,9.5,6.9,15.7c0,6.8-2.6,11.5-4.9,13.5c-0.6,0.7-2.8,2.8-7.6,2.8c-9.2,0-15.5-9.8-15.5-18.3
		c0-6.7,1.9-11,4.5-13.5C1748.1,241.8,1751.6,240.5,1754,240.5 M1755.3,238.6c-4,0-8.9,1.7-11.7,4c-4.4,3.5-7.4,8.4-7.4,15.4
		c0,4.9,1.7,9.6,4.8,12.9c3.5,4,9.1,6.5,14.9,6.5c2.9,0,7.7-0.8,11.3-3.3c4.2-3,8.1-8.6,8.1-16.6
		C1775.2,246.7,1766.3,238.6,1755.3,238.6 M1677.4,240.2c0,0.4,0.5,0.9,1.6,1.1c2.7,0.5,3,1.6,3,2.9c0.1,1.9,0.1,5.8,0.1,8.1
		c0,8.3-0.2,17.4-0.3,18.9c-0.3,2.2-1.1,3.3-4.2,4c-0.9,0.2-1.4,0.6-1.4,1c0,0.5,0.6,0.6,1.7,0.6c0.8,0,3.5-0.3,7.4-0.3
		c11.6,0,16.8,0.3,17.5,0.3c0.2,0,1.3-0.3,1.4-1c0.5-2.2,0.9-3.4,1.8-6.2c0.2-0.9,0.1-1.5-0.2-1.5c-0.3,0-0.8,0.2-1.4,1.3
		c-1.5,2.2-2.5,3-3.3,3.8c-1.1,1-1.8,1-2.3,1.1c-0.9,0.1-2.5,0.2-4.1,0.2c-1.9,0-4-0.1-5.5-0.3c-0.5-0.1-1.8-1.4-1.9-2.2
		c-0.2-1.9-0.4-7.4-0.4-11.9c0-8.5,0-14.3,0.3-16.8c0.1-0.9,0.5-1.5,3.8-2.2c0.9-0.2,1.3-0.6,1.3-1s-0.4-0.6-1.4-0.6
		c-1.4,0-5.3,0.2-7.5,0.2c-1.7,0-2.7-0.1-4.2-0.1C1677.9,239.5,1677.4,239.8,1677.4,240.2 M1618,240.2c0,0.4,0.5,0.9,1.6,1.1
		c2.7,0.5,3,1.6,3,2.9c0.1,1.9,0.1,5.8,0.1,8.1c0,8.3-0.2,17.4-0.3,18.9c-0.3,2.2-1.1,3.3-4.2,4c-0.9,0.2-1.4,0.6-1.4,1
		c0,0.5,0.6,0.6,1.7,0.6c0.8,0,3.5-0.3,7.4-0.3c11.6,0,16.8,0.3,17.5,0.3c0.2,0,1.3-0.3,1.4-1c0.5-2.2,0.9-3.4,1.8-6.2
		c0.2-0.9,0.1-1.5-0.2-1.5c-0.3,0-0.8,0.2-1.4,1.3c-1.5,2.2-2.5,3-3.3,3.8c-1.1,1-1.8,1-2.3,1.1c-0.9,0.1-2.5,0.2-4.1,0.2
		c-1.9,0-4-0.1-5.5-0.3c-0.5-0.1-1.8-1.4-1.9-2.2c-0.2-1.9-0.4-7.4-0.4-11.9c0-8.5,0-14.3,0.3-16.8c0.1-0.9,0.5-1.5,3.8-2.2
		c0.9-0.2,1.3-0.6,1.3-1s-0.4-0.6-1.4-0.6c-1.4,0-5.3,0.2-7.5,0.2c-1.7,0-2.7-0.1-4.2-0.1C1618.4,239.5,1618,239.8,1618,240.2
		 M1568.7,239.7c-3.8,0-6.1-0.2-8.8-0.2c-0.8,0-1.6,0.3-1.6,0.8c0,0.5,0.5,0.7,1.7,1c2.5,0.6,3.1,1.3,3.2,3.8
		c0.1,1.7,0.1,2.9,0.1,9.7c0,7.1-0.3,13.9-0.5,16.3c-0.2,3.1-1.3,3.5-4.2,4.2c-0.9,0.2-1.6,0.5-1.6,0.9c0,0.6,0.6,0.7,1.7,0.7
		c2.2,0,3.4-0.3,6.5-0.3c9.3,0,18,0.5,18.6,0.5c0.3,0,0.8-0.5,1-0.7c0.4-0.5,2-5.7,2.1-6.1c0.1-0.6-0.1-1.5-0.5-1.5
		c-0.3,0-0.7,0.3-1.3,1.6c-1.4,2.7-2.9,3.8-4.8,4.2c-1.3,0.3-4.8,0.4-5.4,0.4c-2.3,0-4.2-0.2-5.2-0.4c-0.4-0.1-0.9-0.6-1.1-1.3
		c-0.3-0.9-0.6-3.1-0.6-4.8c0-2.5-0.1-7.8,0.2-9c0-0.1,0.3-0.5,0.5-0.5c1.5,0,3.8,0,5.7,0.1c3.5,0.2,3.7,0.3,4.5,3
		c0.2,0.6,0.6,1.3,1,1.3c0.4,0,0.7-0.6,0.6-1.7c-0.1-1.1-0.2-1.9-0.2-3.5c0-1.4,0.1-2.5,0.2-4.1c0.1-0.5-0.1-1.3-0.5-1.3
		c-0.3,0-0.7,0.3-1,1.2c-1,2.6-1.3,2.9-6.6,2.9h-3.7c-0.3,0-0.3-0.3-0.4-0.6c-0.1-0.9,0.1-11.6,0.2-13.1c0.1-1.3,0.7-1.6,0.9-1.6
		c2.5-0.1,6.6,0,8.1,0.2c1.8,0.3,3.1,0.9,3.8,3.9c0.1,0.6,0.4,1.4,0.9,1.4c0.5,0,0.9-0.7,0.9-1.5c0-1.1-0.1-2.8-0.1-5.4
		c-0.1-0.3-0.3-0.7-0.5-0.6c-0.9,0.1-3.4,0.2-5.3,0.2H1568.7z M1518.4,238.6c-4,0-6.7,1.2-8.5,2.8c-1.9,1.7-3.2,4.3-3.2,7
		c0,4.9,3.4,8.2,8.3,11.3c6,3.8,7.2,6.4,7.2,8.8c0,4.1-3,6.9-6.9,6.9c-2.2,0-6-1.4-7.4-4.6c-0.8-1.8-1.7-3.3-2.1-3.3
		c-0.2,0-0.8,0.9-0.8,1.1c0,0.9,0.6,3.4,0.9,5.4c0,0.2,0.7,1.5,1.3,1.8c1.8,0.9,5.7,1.5,7.5,1.5c2.6,0,6-0.9,7.8-2.1
		c3.1-2,4.7-5.2,4.7-8.1c0-5.2-3.5-8.1-7.9-11.1c-5-3.4-8-5.2-8-9.2c0-3.8,2.8-6.7,6.6-6.7c1.7,0,3,0.5,4.1,1.3
		c0.6,0.3,2.1,2.1,2.8,4.1c0.2,0.8,0.9,1.2,1.4,1.2c0.4,0,0.4-0.6,0.4-1.5c0-0.2-0.5-3.6-0.6-4.6c0-0.1-0.3-1-0.7-1.1
		C1524.2,239.5,1521.2,238.6,1518.4,238.6 M1433.6,240.2c0,0.5,0.6,0.7,1.3,0.9c2.6,0.7,3.2,0.7,4.8,2.6c0.1,0.2,0.4,0.7,0.4,2.8
		c0,4.8-0.8,18.5-1.1,23.1c-0.2,4.2-1.3,4.5-4,5.4c-0.6,0.2-1.1,0.5-1.1,1c0,0.6,0.7,0.6,1.5,0.6c1,0,2.5-0.1,3.7-0.1
		c2.1,0,4.5,0.3,6.1,0.3c1.1,0,1.8-0.2,1.8-0.7c0-0.3-0.2-0.7-1.4-1c-2.8-0.8-3.4-1.7-3.6-4.3c-0.1-1.8,0.1-10.6,0.1-15.8
		c0.1-4.5,0.2-6.1,0.3-7.6c0-0.3,0.4-0.4,0.6-0.1c5.2,6.2,15.1,17.4,20.5,23.8c1.5,1.9,2.6,3.4,3.6,4.6c0.5,0.7,1.8,1.8,2.6,1.8
		c0.5,0,0.8-0.6,0.8-1.2c0-0.9-0.4-5.2-0.4-7.6c0-9.9,0.5-21.1,0.6-23.2c0.2-3.1,1.2-3.6,3.7-4.2c1-0.3,1.4-0.8,1.4-1.1
		c0-0.5-0.3-0.6-1.3-0.6c-1.5,0-3.3,0.2-5.4,0.2c-1.8,0-3.4-0.1-4.9-0.1c-0.7,0-1.5,0.1-1.5,0.5c0,0.5,0.4,0.9,1.5,1.3
		c3.2,0.9,3.6,2.3,3.6,3.5c0.2,1.8,0.3,3.8,0.3,5.7c0,8.3,0.2,14.4-0.1,16.3c0,0.2-0.2,0.7-0.6,0.4c-3.8-4.2-16.4-17.9-19-21.2
		c-2.2-2.9-3.7-4.6-4.5-5.7c-0.3-0.3-0.9-0.7-1.2-0.7c-2.9,0-5.7-0.2-7-0.2C1434.1,239.5,1433.6,239.7,1433.6,240.2 M1362.6,240.2
		c0,0.5,0.6,0.8,1.3,1c2.2,0.5,3,1.4,3.1,2.5c0.1,0.7,0.2,5.3,0.2,13.6c0,9.6,1.4,13.8,4.6,16.8c1.4,1.3,5.2,3.4,10.4,3.4
		c2.5,0,5.6-0.3,8.3-1.8c4.1-2.3,6.9-7.3,7.2-17.3c0.1-3,0.5-9.3,0.5-11.8c0.1-3.6,1.3-4.6,3.7-5.3c0.8-0.3,1.3-0.7,1.3-1
		c0-0.5-0.5-0.6-1.4-0.6c-1.6,0-2.8,0.1-5.2,0.1c-1.8,0-3.4-0.2-4.9-0.2c-1,0-1.3,0.2-1.3,0.6c0,0.4,0.6,0.9,1.2,1
		c3.2,0.7,3.6,1.5,3.8,3.7c0.1,0.7,0.2,3.7,0.2,7.4c0,6.5-0.6,11.3-1.3,14.4c-1.4,6.3-7,8-10.7,8c-3,0-6.7-1.4-8.3-3.2
		c-1.8-2-3.2-4.5-3.2-10.9c0-8.1-0.1-14.1,0.2-16c0.3-2.3,1.4-2.9,3.5-3.3c1.1-0.2,1.7-0.6,1.7-1.1c0-0.5-0.7-0.6-1.8-0.6
		c-1.3,0-3.4,0.1-5.6,0.1s-3.5-0.2-5.9-0.2C1363.4,239.5,1362.6,239.7,1362.6,240.2 M1311.5,240.5c2.6,0,6.2,1.2,8.6,3.1
		c4.2,3.4,6.9,9.5,6.9,15.7c0,6.8-2.6,11.5-4.9,13.5c-0.6,0.7-2.8,2.8-7.6,2.8c-9.2,0-15.5-9.8-15.5-18.3c0-6.7,1.9-11,4.5-13.5
		C1305.6,241.8,1309.1,240.5,1311.5,240.5 M1312.8,238.6c-4,0-8.9,1.7-11.7,4c-4.4,3.5-7.4,8.4-7.4,15.4c0,4.9,1.7,9.6,4.8,12.9
		c3.5,4,9.1,6.5,14.9,6.5c2.9,0,7.7-0.8,11.3-3.3c4.2-3,8.1-8.6,8.1-16.6C1332.6,246.7,1323.8,238.6,1312.8,238.6 M1248.4,238.6
		c-5.3,0-10.6,1.3-15.5,5.3c-2.4,2-6.3,7.2-6.3,13.8c0,6.5,2.6,10.7,4.8,13.2c2.3,2.7,8.2,6.7,16.3,6.7c4.9,0,9.5-1.2,10.4-1.6
		c0.6-0.3,1.5-1,1.8-1.5c0.8-1.3,2.1-4.4,2.3-5.8c0.1-0.6,0.1-1.9-0.5-1.9c-0.2,0-0.5,0.3-1.2,1.5c-1.4,2.4-2.8,4.2-5.3,5.6
		c-2.3,1.4-5.2,1.5-6.2,1.5c-4.6,0-11.3-2.6-14.5-9.2c-1.3-2.5-2-5.6-2-9.5c0-8.7,5.9-16.3,15.1-16.3c3.1,0,6,0.6,9.2,3
		c0.7,0.6,1.8,2.3,2.3,4.3c0.3,0.9,0.6,1.5,0.9,1.5c0.5,0,0.9-0.7,0.9-1.9c-0.1-1.3-0.4-3.8-0.4-5c0-1.3-0.6-1.7-0.9-1.7
		c-0.9-0.1-2.9-0.9-4.4-1.1C1253,239,1250.4,238.6,1248.4,238.6"/>
	<path style="clip-path:url(#SVGID_00000055694546600282396630000008006529358167882683_);fill:currentColor;" d="M1823.1,159
		c-5.3,0-10.6,1.3-15.5,5.3c-2.4,2-6.3,7.2-6.3,13.8c0,6.5,2.6,10.7,4.8,13.2c2.3,2.7,8.2,6.7,16.3,6.7c4.9,0,9.5-1.2,10.4-1.6
		c0.6-0.3,1.5-1,1.8-1.5c0.8-1.3,2.1-4.4,2.3-5.8c0.1-0.6,0.1-1.9-0.5-1.9c-0.2,0-0.5,0.3-1.2,1.5c-1.4,2.4-2.8,4.2-5.3,5.6
		c-2.4,1.4-5.2,1.5-6.2,1.5c-4.6,0-11.3-2.6-14.5-9.2c-1.3-2.5-2-5.6-2-9.5c0-8.7,5.9-16.3,15.1-16.3c3.1,0,6,0.6,9.2,3
		c0.7,0.6,1.8,2.3,2.3,4.3c0.3,0.9,0.6,1.5,0.9,1.5c0.5,0,0.9-0.7,0.9-1.9c-0.1-1.3-0.4-3.8-0.4-5c0-1.3-0.6-1.7-0.9-1.7
		c-0.9-0.1-2.9-0.9-4.4-1.1C1827.6,159.4,1825.1,159,1823.1,159 M1766.4,178.2c0,4.9-0.1,10.8-0.3,12.8c-0.2,2.7-0.5,3.6-3.3,4.2
		c-1.1,0.2-1.7,0.6-1.7,1s0.4,0.8,1.5,0.8c2.1,0,2.6-0.1,4.4-0.1c1.5,0,5.6,0.3,8.5,0.3c0.7,0,1.5-0.3,1.5-0.7c0-0.4-0.5-0.8-1.5-1
		c-3.7-0.7-4-1.8-4.2-4.9c-0.1-1.8-0.2-5.4-0.2-8.5c0-11.2,0.1-15,0.3-16.8c0.2-1.5,0.2-3,3.5-3.7c0.9-0.2,1.5-0.5,1.5-1
		c0-0.5-0.5-0.7-1.4-0.7c-2,0-3.3,0.2-6.1,0.2c-1.9,0-4.8-0.2-6.2-0.2c-0.8,0-1.4,0.2-1.4,0.7c0,0.4,0.3,0.8,1.6,1
		c3.2,0.6,3.2,1.4,3.4,4.1C1766.4,167.6,1766.4,174.7,1766.4,178.2 M1717.8,160.1c-7.3,0-11.9-0.2-13.4-0.3
		c-0.9-0.1-1.8-0.9-1.9-1.1c-0.6-0.5-0.6-0.9-0.9-0.9c-0.3,0-0.9,0.6-0.9,0.9c0,3.4-1.1,6.5-1.1,7.6c0,0.6,0.2,1.3,0.6,1.3
		c0.2,0,0.6,0.1,1.1-1.1c1-1.9,1.7-2.8,1.9-3c0.9-1,2.1-1.3,4.2-1.3c0.9,0,6,0.1,7.1,0.3c0.2,0,0.5,0.3,0.5,0.7v6.8
		c0,4.4-0.3,16.1-0.4,19.5c-0.2,4.3-0.3,5.3-4.3,6.2c-0.5,0.1-1.1,0.6-1.1,1c0,0.3,0.6,0.7,1.7,0.7c0.7,0,3.7-0.4,6.5-0.4
		c2.5,0,6.1,0.3,6.5,0.3c0.6,0,1.6-0.1,1.6-0.7c0-0.4-0.8-0.9-1.5-1c-3.6-0.8-3.8-1.5-4.1-4.1c-0.2-2.1-0.2-7.6-0.2-14.2v-14
		c0-0.1,0.2-0.7,0.5-0.7c0.7-0.2,7-0.2,8-0.1c3.6,0.2,4.3,0.5,4.6,3.4c0.2,1.4,0.4,1.8,0.8,1.8c0.5,0,0.9-0.6,1-1.1
		c0.3-3,0.7-4.8,1.3-6.6c0.3-0.8,0.1-1.3-0.2-1.3c-0.2,0-0.4,0.1-0.8,0.3c-0.8,0.6-1.8,0.9-3.9,1
		C1728.6,160,1720.8,160.1,1717.8,160.1 M1634.4,160.6c0,0.5,0.6,0.8,1.3,1c2.2,0.5,3,1.4,3.1,2.5c0.1,0.7,0.2,5.3,0.2,13.6
		c0,9.6,1.4,13.8,4.6,16.8c1.4,1.3,5.2,3.4,10.4,3.4c2.5,0,5.6-0.3,8.3-1.8c4.1-2.3,6.9-7.3,7.2-17.3c0.1-3,0.5-9.3,0.5-11.8
		c0.1-3.6,1.3-4.6,3.7-5.3c0.8-0.3,1.3-0.7,1.3-1c0-0.5-0.5-0.6-1.4-0.6c-1.6,0-2.8,0.1-5.2,0.1c-1.8,0-3.4-0.2-4.9-0.2
		c-1,0-1.3,0.2-1.3,0.6c0,0.4,0.6,0.9,1.2,1c3.2,0.7,3.6,1.5,3.8,3.7c0.1,0.7,0.2,3.7,0.2,7.4c0,6.5-0.6,11.3-1.3,14.4
		c-1.4,6.3-7,8-10.7,8c-3,0-6.7-1.4-8.3-3.2c-1.8-2-3.2-4.5-3.2-10.9c0-8.1-0.1-14.1,0.2-16c0.3-2.3,1.4-2.9,3.5-3.3
		c1.1-0.2,1.7-0.6,1.7-1.1c0-0.5-0.7-0.6-1.8-0.6c-1.3,0-3.4,0.1-5.6,0.1s-3.5-0.2-5.9-0.2C1635.1,159.9,1634.4,160.1,1634.4,160.6
		 M1592.7,160.1c-3.8,0-6.1-0.2-8.8-0.2c-0.8,0-1.6,0.3-1.6,0.8c0,0.5,0.5,0.7,1.7,1c2.5,0.6,3.1,1.3,3.2,3.8
		c0.1,1.7,0.1,2.9,0.1,9.7c0,7.1-0.3,13.9-0.5,16.3c-0.2,3.1-1.3,3.5-4.2,4.2c-0.9,0.2-1.6,0.5-1.6,0.9c0,0.6,0.6,0.7,1.7,0.7
		c2.2,0,3.4-0.3,6.5-0.3c9.3,0,18,0.5,18.6,0.5c0.3,0,0.8-0.5,1-0.7c0.4-0.5,2-5.7,2.1-6.1c0.1-0.6-0.1-1.5-0.5-1.5
		c-0.3,0-0.7,0.3-1.3,1.6c-1.4,2.7-2.9,3.8-4.8,4.2c-1.3,0.3-4.8,0.4-5.4,0.4c-2.3,0-4.2-0.2-5.2-0.4c-0.4-0.1-0.9-0.6-1.1-1.3
		c-0.3-0.9-0.6-3.1-0.6-4.8c0-2.5-0.1-7.8,0.2-9c0-0.1,0.3-0.5,0.5-0.5c1.5,0,3.8,0,5.7,0.1c3.5,0.2,3.7,0.3,4.5,3
		c0.2,0.6,0.6,1.3,1,1.3s0.7-0.6,0.6-1.7c-0.1-1.1-0.2-1.9-0.2-3.5c0-1.4,0.1-2.5,0.2-4.1c0.1-0.5-0.1-1.3-0.5-1.3
		c-0.3,0-0.7,0.3-1,1.2c-1,2.6-1.3,2.9-6.6,2.9h-3.7c-0.3,0-0.3-0.3-0.4-0.6c-0.1-0.9,0.1-11.6,0.2-13.1c0.1-1.3,0.7-1.6,0.9-1.6
		c2.5-0.1,6.6,0,8.1,0.2c1.8,0.3,3.1,0.9,3.8,3.9c0.1,0.6,0.4,1.4,0.9,1.4c0.5,0,0.9-0.7,0.9-1.5c0-1.1-0.1-2.8-0.1-5.4
		c-0.1-0.3-0.3-0.7-0.5-0.6c-0.9,0.1-3.4,0.2-5.3,0.2H1592.7z M1553.2,171c0,6.6-4.2,9.3-7.3,9.3h-1.4c-0.5,0-0.7,0.3-0.7,0.5
		c0,0.3,0.3,0.6,1,0.9c0.9,0.3,2.4,0.4,3,0.4c2.5,0,5.1-1.3,6.6-2.5c1.7-1.4,4-3.8,4-8.9c0-1.9-0.6-5.2-3.3-7.8
		c-2.1-2-5.5-3.4-10.7-3.4c-2.9,0-7.3,0.5-9.6,0.5c-0.5,0-1.5-0.1-1.9,0c-0.7,0.1-1.3,0.3-1.3,0.8c0,0.3,0.6,0.7,1.8,0.9
		c3.2,0.5,3.2,1.3,3.2,3.3c0.1,1.8,0.2,14,0.2,15.9c0,2.9-0.1,7.6-0.3,10.4c-0.2,2.3-0.8,3.5-4,4.2c-0.6,0.2-1.1,0.5-1.1,0.9
		c0,0.5,0.6,0.8,1.6,0.8c1.8,0,4.1-0.2,5.8-0.2c2.5,0,4.6,0.2,6,0.2c0.9,0,1.9-0.2,1.9-0.7c0-0.5-0.5-0.8-1.5-1.1
		c-2.9-0.9-3.4-1.3-3.4-5c0-1.4-0.1-6.2-0.1-11.4c0.1-6.6,0.1-13.7,0.1-14.9c0.1-1.4,0.3-2.1,0.6-2.2c0.5-0.3,1-0.5,1.7-0.5
		C1549.3,161.3,1553.2,165.8,1553.2,171 M1490.5,179.5c-1.9,0.2-6.6,0.1-8.9,0.2c-0.2,0-0.3-0.2-0.3-0.4c0.5-1.8,3.4-9.8,4.5-12.5
		c0.2-0.4,0.3-0.3,0.5,0c0.5,0.8,3.5,9.4,4.5,12.3C1490.7,179.2,1490.5,179.5,1490.5,179.5 M1487.9,159c-0.3,0-0.5,0.3-0.9,0.7
		c-0.4,0.6-1,1.7-1.4,2.3c-0.2,0.5-0.3,0.8-0.4,1c-0.1,0.3-0.2,0.7-0.5,1.5c-2.4,5.8-8.9,23.1-10.3,26.1c-1.7,3.7-2.4,3.9-5.3,4.9
		c-0.9,0.3-1.3,0.8-1.3,1.1s0.3,0.6,1.3,0.6c0.9,0,3.8-0.3,6-0.3s3.6,0.2,4.5,0.2c0.7,0,1.6-0.2,1.6-0.7c0-0.4-0.6-0.7-1.5-1
		c-2.6-0.8-2.8-1.8-2.8-2.5c0-1.4,1.5-6.3,3-10c0.1-0.2,0.4-0.5,0.6-0.5c1.2-0.2,6.2-0.2,9.4-0.2c1.7,0,1.9,0.3,1.9,0.6
		c1.3,3.7,2.8,7.4,3.2,9.8c0.2,1.2,0.5,2.3-2.3,2.9c-1,0.2-1.4,0.6-1.4,0.9c0,0.3,0.3,0.7,1.8,0.7c1.4,0,2.2-0.1,4.1-0.1
		c2.5,0,5.3,0.3,7.2,0.3c1.4,0,1.8-0.3,1.8-0.7s-0.5-0.7-1.4-1c-2.6-0.6-3.5-1.1-5.4-5.8c-1-2.3-5.3-13.7-8.3-22.1
		c-1.1-3-2.1-5.6-2.5-7.1C1488.3,159.2,1488.1,159,1487.9,159 M1430.6,169.4c0,3.6-2.2,6.1-3.8,7.1c-0.8,0.5-3.8,1.5-7.2,1.5
		c-0.3,0-0.8-0.4-0.9-0.9c-0.2-1,0-12,0.2-14c0-0.2,0.4-1.1,0.7-1.2c0.6-0.3,2.5-0.4,2.8-0.4c1.8,0,4.3,0.9,5.7,2.2
		C1429.7,165.4,1430.6,168.1,1430.6,169.4 M1435.7,169.3c0-2.8-1.4-5.6-3.3-7.2c-2.3-1.9-5.4-2.4-9.3-2.4c-3.1,0-7.2,0.3-9.3,0.3
		h-3.2c-1.3,0-1.5,0.3-1.5,0.7c0,0.5,0.5,0.7,1.4,1c2.6,0.6,3.1,0.7,3.3,2.9c0.2,2.2,0.3,7.4,0.3,16.3c0,3.4-0.2,9.5-0.3,11.3
		c-0.2,2.2-1.2,2.5-3.7,3.3c-0.7,0.3-1.3,0.4-1.3,0.9c0,0.6,0.7,0.8,1.5,0.8c0.6,0,3.6-0.2,4.6-0.2c3.9,0,5,0.3,7.4,0.3
		c0.3,0,1.4-0.2,1.4-0.7c0-0.3-0.4-0.7-1.4-1c-2.7-0.6-3.3-1.4-3.4-3.8c-0.2-3.3-0.3-10.6-0.2-11.6c0-0.2,0.3-0.7,0.7-0.7
		c1.7,0,3.8,0.5,4.1,0.7c0.3,0.2,1.5,1.7,2.3,2.9c2.3,3.6,5.2,8,7.2,10.8c1.7,2.1,4.9,3.7,7.6,3.7c1.2,0,2.5-0.1,3.2-0.4
		c0.3-0.2,0.8-0.4,0.8-0.7c0-0.2-0.5-0.7-0.9-0.8c-2.5-0.5-4.1-1.5-5.6-3.4c-3.5-3.9-8.3-11.6-8.9-13c-0.1-0.2,0.1-0.7,0.2-0.9
		c0.4-0.3,1.5-0.8,1.8-1C1433.9,175.6,1435.7,172.4,1435.7,169.3 M1365.8,160.1c-3.8,0-6.1-0.2-8.8-0.2c-0.8,0-1.6,0.3-1.6,0.8
		c0,0.5,0.5,0.7,1.7,1c2.5,0.6,3.1,1.3,3.2,3.8c0.1,1.7,0.1,2.9,0.1,9.7c0,7.1-0.3,13.9-0.5,16.3c-0.2,3.1-1.3,3.5-4.2,4.2
		c-0.9,0.2-1.6,0.5-1.6,0.9c0,0.6,0.6,0.7,1.7,0.7c2.2,0,3.4-0.3,6.5-0.3c9.3,0,18,0.5,18.6,0.5c0.3,0,0.8-0.5,1-0.7
		c0.4-0.5,2-5.7,2.1-6.1c0.1-0.6-0.1-1.5-0.5-1.5c-0.3,0-0.7,0.3-1.3,1.6c-1.4,2.7-2.9,3.8-4.8,4.2c-1.3,0.3-4.8,0.4-5.4,0.4
		c-2.3,0-4.2-0.2-5.2-0.4c-0.4-0.1-0.9-0.6-1.1-1.3c-0.3-0.9-0.6-3.1-0.6-4.8c0-2.5-0.1-7.8,0.2-9c0-0.1,0.3-0.5,0.5-0.5
		c1.5,0,3.8,0,5.7,0.1c3.5,0.2,3.7,0.3,4.5,3c0.2,0.6,0.6,1.3,1,1.3s0.7-0.6,0.6-1.7c-0.1-1.1-0.2-1.9-0.2-3.5
		c0-1.4,0.1-2.5,0.2-4.1c0.1-0.5-0.1-1.3-0.5-1.3c-0.3,0-0.7,0.3-1,1.2c-1,2.6-1.3,2.9-6.6,2.9h-3.7c-0.3,0-0.3-0.3-0.4-0.6
		c-0.1-0.9,0.1-11.6,0.2-13.1c0.1-1.3,0.7-1.6,0.9-1.6c2.5-0.1,6.6,0,8.1,0.2c1.8,0.3,3.1,0.9,3.8,3.9c0.1,0.6,0.4,1.4,0.9,1.4
		c0.5,0,0.9-0.7,0.9-1.5c0-1.1-0.1-2.8-0.1-5.4c-0.1-0.3-0.3-0.7-0.5-0.6c-0.9,0.1-3.4,0.2-5.3,0.2H1365.8z M1296.3,175.9
		c-0.1-1,0-8.5,0.2-10.4c0.2-2.4,0.3-3.3,3-3.8c1.2-0.2,1.7-0.5,1.7-1.1c0-0.3-0.6-0.6-1.8-0.6c-1.3,0-3,0.1-5.4,0.1
		c-1.5,0-3.6-0.1-5.2-0.1c-0.9,0-1.7,0.2-1.7,0.6c0,0.5,0.4,0.9,1.6,1.1c2.4,0.5,2.8,1.3,2.9,3.3c0.1,2.5,0,7.8,0,8.8
		c0,9.3-0.3,15.8-0.5,18.2c-0.2,2.2-0.7,2.8-3.6,3.6c-0.6,0.2-1.3,0.5-1.3,1.1c0,0.3,0.5,0.6,1.7,0.6c1.9,0,4.4-0.2,5.7-0.2
		c2.1,0,5.6,0.2,6,0.2c0.7,0,1.7-0.1,1.7-0.6c-0.1-0.6-0.5-0.8-1.7-1.1c-2.4-0.7-3-1.8-3.1-4.5c0-1.7-0.1-9,0-10.5
		c0-0.5,0.5-1,0.6-1c1.1-0.1,12.4,0.1,21.3,0.1c0.5,0,0.7,0.2,0.7,1.2c0,2.9-0.1,6.8-0.2,9.2c-0.2,4.1-0.5,4.7-3.6,5.6
		c-0.6,0.2-1.3,0.5-1.3,1c0,0.5,0.6,0.6,1.4,0.6c1.1,0,5.4-0.3,6.7-0.3c1.8,0,3.8,0.2,4.8,0.2c1.1,0,1.6-0.2,1.6-0.6
		c0-0.4-0.5-0.8-1.3-1.1c-2.6-0.7-3.2-1-3.3-3.2c0-0.9-0.2-6-0.2-8.5c0-9.7,0.2-15.9,0.5-18.9c0.1-1.7,0.6-2.7,3-3.3
		c1.2-0.3,1.7-0.7,1.7-1c0-0.5-0.7-0.6-1.6-0.6c-0.6,0-3.3,0.2-5.2,0.2c-1.4,0-5.1-0.1-5.8-0.1c-1.2,0-1.8,0.2-1.8,0.6
		c0,0.5,0.6,0.9,1.4,1.1c2.6,0.7,3,1.1,3.2,3.3c0.2,2.2,0.2,9.7,0.1,10.4c-0.1,1.1-0.3,1.5-0.6,1.5c-10.1,0-17.9,0.2-21.3,0.2
		C1296.6,177,1296.4,177,1296.3,175.9 M1243.3,160.1c-7.3,0-11.9-0.2-13.4-0.3c-0.9-0.1-1.8-0.9-1.9-1.1c-0.6-0.5-0.6-0.9-0.9-0.9
		c-0.3,0-0.9,0.6-0.9,0.9c0,3.4-1.1,6.5-1.1,7.6c0,0.6,0.2,1.3,0.6,1.3c0.2,0,0.6,0.1,1.1-1.1c1-1.9,1.7-2.8,1.9-3
		c0.9-1,2.1-1.3,4.2-1.3c0.9,0,6,0.1,7.1,0.3c0.2,0,0.5,0.3,0.5,0.7v6.8c0,4.4-0.3,16.1-0.4,19.5c-0.2,4.3-0.3,5.3-4.3,6.2
		c-0.5,0.1-1.1,0.6-1.1,1c0,0.3,0.6,0.7,1.7,0.7c0.7,0,3.7-0.4,6.5-0.4c2.5,0,6.1,0.3,6.5,0.3c0.6,0,1.6-0.1,1.6-0.7
		c0-0.4-0.8-0.9-1.5-1c-3.6-0.8-3.8-1.5-4.1-4.1c-0.2-2.1-0.2-7.6-0.2-14.2v-14c0-0.1,0.2-0.7,0.5-0.7c0.7-0.2,7-0.2,8-0.1
		c3.6,0.2,4.3,0.5,4.6,3.4c0.2,1.4,0.4,1.8,0.8,1.8c0.5,0,0.9-0.6,1-1.1c0.3-3,0.7-4.8,1.3-6.6c0.3-0.8,0.1-1.3-0.2-1.3
		c-0.2,0-0.4,0.1-0.8,0.3c-0.8,0.6-1.8,0.9-3.9,1C1254.1,160,1246.3,160.1,1243.3,160.1"/>
	
		<line style="clip-path:url(#SVGID_00000055694546600282396630000008006529358167882683_);fill:none;stroke:currentColor;stroke-width:9.55;" x1="1099.5" y1="0" x2="1099.5" y2="432"/>
</g>
</svg>